<?xml version="1.0" standalone="no"?>
<!DOCTYPE svg PUBLIC "-//W3C//DTD SVG 20010904//EN"
 "http://www.w3.org/TR/2001/REC-SVG-20010904/DTD/svg10.dtd">
<svg version="1.0" xmlns="http://www.w3.org/2000/svg"
 width="260.000000pt" height="260.000000pt" viewBox="0 0 260.000000 260.000000"
 preserveAspectRatio="xMidYMid meet">
<metadata>
Created by potrace 1.11, written by Peter Selinger 2001-2013
</metadata>
<g transform="translate(0.000000,260.000000) scale(0.100000,-0.100000)"
fill="#000000" stroke="none">
<path d="M1120 1539 c-161 -19 -299 -51 -390 -90 -66 -29 -161 -79 -195 -104
-27 -19 -33 -20 -57 -8 -101 50 -241 33 -324 -39 -97 -86 -104 -256 -13 -354
11 -12 45 -34 75 -49 32 -16 53 -33 50 -40 -2 -7 -12 -64 -22 -126 -37 -239
-12 -729 38 -729 21 0 21 -7 3 105 -45 271 -21 662 53 875 43 123 145 280 215
331 190 139 462 203 862 204 207 0 226 -2 323 -27 118 -31 244 -89 316 -145
105 -82 208 -257 259 -443 45 -160 58 -282 64 -602 5 -241 8 -298 19 -298 12
0 14 52 14 284 0 290 -12 446 -45 566 -20 76 -20 77 24 99 51 26 109 95 122
145 6 23 9 69 5 104 -9 102 -62 168 -162 203 -70 25 -144 21 -219 -11 l-48
-20 -46 28 c-240 151 -499 190 -921 141z m1245 -183 c28 -13 58 -32 67 -42 50
-57 64 -174 28 -245 -20 -38 -90 -99 -116 -99 -10 0 -54 94 -54 116 0 3 10 18
21 34 26 35 27 74 3 101 -16 17 -27 20 -64 16 -44 -5 -46 -4 -85 46 -22 29
-41 55 -43 59 -5 12 90 37 143 37 33 1 67 -7 100 -23z m-1911 -48 l25 -13 -45
-60 c-43 -57 -47 -60 -84 -57 -72 6 -104 -58 -56 -115 l24 -29 -21 -62 c-25
-70 -34 -72 -97 -23 -73 58 -102 138 -80 223 20 74 68 122 150 149 34 12 153
3 184 -13z"/>
<path d="M1609 1365 c-187 -60 -286 -268 -211 -439 27 -59 99 -136 156 -164
153 -77 359 -28 444 105 138 216 -10 498 -268 510 -48 2 -92 -3 -121 -12z
m232 -32 c112 -50 189 -164 189 -280 0 -178 -127 -303 -310 -306 -269 -3 -422
282 -262 491 82 108 256 151 383 95z"/>
<path d="M1494 1126 c-43 -19 -64 -53 -64 -102 0 -35 5 -47 35 -73 50 -44 101
-43 149 3 38 35 46 70 26 120 -19 50 -92 76 -146 52z m124 -130 c-4 -25 -36
-34 -44 -12 -8 21 13 46 32 39 8 -3 14 -15 12 -27z"/>
<path d="M767 1326 c-168 -62 -258 -246 -203 -414 23 -69 100 -153 174 -189
50 -24 69 -28 147 -28 71 0 100 5 137 22 59 27 132 94 166 152 24 42 27 56 27
146 0 85 -3 106 -23 142 -34 64 -77 109 -140 145 -52 29 -66 33 -152 35 -64 2
-108 -1 -133 -11z m253 -32 c73 -34 116 -76 151 -149 42 -86 41 -178 -2 -263
-31 -64 -72 -102 -149 -143 -38 -20 -60 -24 -135 -24 -79 0 -97 4 -142 28 -63
33 -115 83 -145 140 -30 56 -33 202 -5 258 31 63 85 116 149 148 53 27 72 31
142 31 66 0 91 -5 136 -26z"/>
<path d="M665 1100 c-69 -28 -90 -118 -40 -170 34 -35 74 -45 120 -30 93 31
102 150 15 195 -32 16 -64 18 -95 5z m123 -124 c5 -24 -10 -38 -31 -30 -20 7
-23 40 -4 47 19 8 32 2 35 -17z"/>
<path d="M1252 820 c-40 -9 -71 -35 -87 -74 -7 -16 -30 -41 -51 -55 -54 -37
-79 -90 -64 -136 15 -44 44 -65 93 -65 34 0 38 -2 32 -20 -3 -11 -7 -49 -8
-86 -2 -61 0 -67 27 -91 34 -29 80 -26 107 6 16 19 16 19 37 -2 26 -26 85 -27
112 -2 16 14 20 34 22 103 l3 86 35 3 c53 6 84 45 77 101 -6 51 -39 91 -98
117 -26 12 -39 25 -39 37 0 69 -89 104 -198 78z m-42 -140 c54 -28 139 -27
189 2 48 27 82 19 133 -31 29 -30 38 -46 38 -73 0 -72 -67 -89 -185 -46 l-64
22 -75 -22 c-91 -27 -127 -28 -156 -4 -29 23 -31 83 -4 113 16 18 72 59 82 59
1 0 20 -9 42 -20z m95 -337 c-7 -31 -49 -57 -79 -49 -35 9 -46 54 -34 138 l10
66 51 14 52 15 3 -81 c2 -45 0 -91 -3 -103z m103 157 l42 -19 0 -79 c0 -47 -5
-83 -12 -90 -16 -16 -73 -15 -86 1 -26 32 -25 207 2 207 6 0 30 -9 54 -20z"/>
</g>
</svg>
